<?xml version="1.0" encoding="UTF-8"?>
<svg width="3142px" height="243px" viewBox="0 0 3142 243" version="1.1" xmlns="http://www.w3.org/2000/svg" xmlns:xlink="http://www.w3.org/1999/xlink">
    <!-- Generator: Sketch 46.2 (44496) - http://www.bohemiancoding.com/sketch -->
    <title>Waves</title>
    <desc>Created with Sketch.</desc>
    <defs>
        <linearGradient x1="50.6291509%" y1="-15.1152699%" x2="50.6291496%" y2="100%" id="linearGradient-1">
            <stop stop-color="#FFFFFF" offset="0%"></stop>
            <stop stop-color="#FFFFFF" stop-opacity="0" offset="100%"></stop>
        </linearGradient>
        <path d="M1585.55458,50.7731586 C1397.22465,-33.1618884 1417.92733,140.790718 1218.27621,40.1487963 C1089.55915,-24.7347786 1076.11602,128.312908 874.350447,46.8723891 C773.843995,6.30335223 759.549589,114.52321 605.851019,40.6477019 C572.464119,24.6000034 545.964796,33.7276489 525,43.1318898 L525,231.649556 L1833.5,231.649556 L3142,231.649556 L3142,60.4100498 C2959.21958,-26.3348955 2956.95736,108.072335 2828.39133,50.7731586 C2640.0614,-33.1618884 2660.76408,140.790718 2461.11296,40.1487963 C2332.3959,-24.7347786 2348.76557,121.312186 2147,39.8716665 C2058.41821,4.11597467 2006.99187,90.9380254 1897.88454,59.8054103 C1879.13803,50.9736938 1862.30044,44.4796605 1847.03611,39.8716665 C1833.98681,33.8815498 1822.00073,31.7264892 1810.99538,31.8890101 C1710.76136,18.5642715 1689.20245,96.966836 1585.55458,50.7731586 Z" id="path-2"></path>
    </defs>
    <g id="Symbols" stroke="none" stroke-width="1" fill="none" fill-rule="evenodd">
        <g id="New_Waves_Banner" transform="translate(1059.000000, -6.000000)">
            <g id="Waves" transform="translate(-1059.000000, 6.000000)">
                <path d="M1433.55458,29.1236022 C1245.22465,-54.8114448 1265.92733,119.141161 1066.27621,18.4992399 C937.55915,-46.3843351 924.116017,106.663352 722.350447,25.2228327 C621.843995,-15.3462042 607.549589,92.8736534 453.851019,18.9981455 C420.464119,2.95044692 393.964796,12.0780925 373,21.4823333 L373,232 L1681.5,232 L2990,232 L2990,38.7604933 C2807.21958,-47.984452 2804.95736,86.4227784 2676.39133,29.1236022 C2488.0614,-54.8114448 2508.76408,119.141161 2309.11296,18.4992399 C2180.3959,-46.3843351 2166.95277,106.663352 1965.1872,25.2228327 C1876.60541,-10.5328591 1854.99187,69.288469 1745.88454,38.1558539 C1727.13803,29.3241373 1710.30044,22.830104 1695.03611,18.22211 C1681.98681,12.2319934 1670.00073,10.0769327 1658.99538,10.2394537 C1558.76136,-3.08528497 1537.20245,75.3172795 1433.55458,29.1236022 Z" id="Combined-Shape-Copy" opacity="0.745977146"></path>
                <path d="M1160.55458,27.1236022 C972.224652,-56.8114448 992.927326,117.141161 793.276209,16.4992399 C664.55915,-48.3843351 651.116017,104.663352 449.350447,23.2228327 C348.843995,-17.3462042 334.549589,90.8736534 180.851019,16.9981455 C147.464119,0.950446924 120.964796,10.0780925 100,19.4823333 L100,232 L1408.5,232 L2717,232 L2717,36.7604933 C2534.21958,-49.984452 2531.95736,84.4227784 2403.39133,27.1236022 C2215.0614,-56.8114448 2235.76408,117.141161 2036.11296,16.4992399 C1907.3959,-48.3843351 1893.95277,104.663352 1692.1872,23.2228327 C1603.60541,-12.5328591 1581.99187,67.288469 1472.88454,36.1558539 C1454.13803,27.3241373 1437.30044,20.830104 1422.03611,16.22211 C1408.98681,10.2319934 1397.00073,8.07693272 1385.99538,8.23945367 C1285.76136,-5.08528497 1264.20245,73.3172795 1160.55458,27.1236022 Z" id="Combined-Shape-Copy-3" fill="url(#linearGradient-1)" style="mix-blend-mode: overlay;" opacity="0.275652985" transform="translate(1408.500000, 116.000000) scale(-1, 1) translate(-1408.500000, -116.000000) "></path>
                <path d="M1060.55458,38.1236022 C872.224652,-45.8114448 892.927326,128.141161 693.276209,27.4992399 C564.55915,-37.3843351 551.116017,115.663352 349.350447,34.2228327 C248.843995,-6.34620422 234.549589,101.873653 80.8510194,27.9981455 C47.4641193,11.9504469 20.9647964,21.0780925 2.04609432e-12,30.4823333 L0,243 L1308.5,243 L2617,243 L2617,47.7604933 C2434.21958,-38.984452 2431.95736,95.4227784 2303.39133,38.1236022 C2115.0614,-45.8114448 2135.76408,128.141161 1936.11296,27.4992399 C1807.3959,-37.3843351 1793.95277,115.663352 1592.1872,34.2228327 C1503.60541,-1.53285915 1481.99187,78.288469 1372.88454,47.1558539 C1354.13803,38.3241373 1337.30044,31.830104 1322.03611,27.22211 C1308.98681,21.2319934 1297.00073,19.0769327 1285.99538,19.2394537 C1185.76136,5.91471503 1164.20245,84.3172795 1060.55458,38.1236022 Z" id="Combined-Shape-Copy-4" fill="url(#linearGradient-1)" style="mix-blend-mode: overlay;" opacity="0.590076959" transform="translate(1308.500000, 127.000000) scale(-1, 1) translate(-1308.500000, -127.000000) "></path>
                <mask id="mask-3" fill="white">
                    <use xlink:href="#path-2"></use>
                </mask>
                <use id="Combined-Shape" fill="url(#linearGradient-1)" style="mix-blend-mode: overlay;" opacity="0.781716418" transform="translate(1833.500000, 127.324778) scale(-1, 1) translate(-1833.500000, -127.324778) " xlink:href="#path-2"></use>
            </g>
        </g>
    </g>
</svg>